
<svg xmlns="http://www.w3.org/2000/svg" xmlns:xlink="http://www.w3.org/1999/xlink" preserveAspectRatio="xMidYMid meet" version="1.0" viewBox="0.0 0.0 367.5 500.0" zoomAndPan="magnify" style="fill: rgb(0, 0, 0);" original_string_length="1102"><g id="__id10_spyjfmptof"><path d="M 193.199219 467.898438 L 193.199219 388.101562 L 347.601562 272.898438 L 347.601562 353.300781 Z M 19.898438 273.601562 L 173.398438 388.101562 L 173.398438 467.800781 L 19.898438 353.300781 Z M 173.398438 175.398438 L 173.398438 254.699219 L 26 144.800781 L 78.601562 104.699219 Z M 173.398438 150.699219 L 95 92.199219 L 173.398438 32.5 Z M 193.199219 150.699219 L 193.199219 32.398438 L 272.101562 91.800781 Z M 193.199219 175.398438 L 288.699219 104.199219 L 341.601562 144 L 193.199219 254.800781 Z M 19.898438 165 L 173.398438 279.5 L 173.398438 363.300781 L 19.898438 248.800781 Z M 347.601562 248.101562 L 193.199219 363.300781 L 193.199219 279.5 L 347.601562 164.300781 Z M 183.300781 0 L 0 139.601562 L 0 363.300781 L 183.300781 500 L 367.5 363.300781 L 367.5 138.601562 L 183.300781 0" style="fill: rgb(134, 199, 92);"/></g></svg>