<?xml version="1.0" encoding="UTF-8"?>
<svg id="Layer_1" xmlns="http://www.w3.org/2000/svg" version="1.1" viewBox="0 0 838.5 224">
  <!-- Generator: Adobe Illustrator 29.3.0, SVG Export Plug-In . SVG Version: 2.1.0 Build 146)  -->
  <defs>
    <style>
      .st0 {
        fill: #9f262d;
        fill-rule: evenodd;
      }
    </style>
  </defs>
  <g id="Page-1">
    <g id="tada_tamtadında_logo">
      <path id="Fill-1" class="st0" d="M341.8,169.5c-20.1-.1-44.6-9.8-44.4-33.6.2-23.2,17-34.8,55-34.5h5.1s0-4.3,0-4.3c0-8.5-6.6-10.7-20.8-10.8-19.6-.1-35.2,11.1-35.2,11.1,0,0,.3-8,2.2-12.7,5.6-14.5,20.9-23.3,40.8-24.1,28.8-1.1,48.1,13.6,47.9,44.4v16.1c-.4,38-12.6,48.7-50.6,48.4h0ZM358,123.9h-7.2c-13.7-.2-19.2,3.2-19.3,10.3,0,6.7,4.1,10.1,14.2,10.2,6.5,0,12.2-3.1,12.3-12.6v-7.8Z"/>
      <path id="Fill-3" class="st0" d="M562,169.5c-20.1-.2-44.6-9.8-44.4-33.6.2-23.2,17-34.8,55-34.5h5.1s0-4.3,0-4.3c0-8.5-6.6-10.7-20.8-10.8-19.6-.1-35.2,11.1-35.2,11.1,0,0,.3-8,2.2-12.7,5.6-14.5,20.9-23.4,40.9-24.1,28.8-1.1,48.1,13.6,47.9,44.4v16.1c-.4,38-12.6,48.7-50.6,48.4h0ZM578.4,123.9h-7.2c-13.7-.2-19.2,3.2-19.2,10.3,0,6.7,4.1,10.1,14.2,10.2,6.5,0,12.2-3.1,12.3-12.6v-7.8Z"/>
      <path id="Fill-5" class="st0" d="M454.8,169.5c-30.8-.2-54.3-25.7-54.1-54,.3-35.1,22.1-56.8,49.8-56.6,13.3.1,23.1,6.1,26.9,14.3l.2-48.9c3.3,1.5,7.6,2.1,13,1.9,14.4.1,22.2,7.8,22.1,25.4l-.5,60.6c-.3,37.8-15.8,57.6-57.4,57.3M454.6,86.9c-9.7,0-17.9,9.9-18,25.9-.2,20.5,9.3,28.9,22.4,29,11.2,0,17.2-8.6,17.3-24.9.2-23.4-8.7-29.9-21.6-30"/>
      <path id="Fill-7" class="st0" d="M239,32.7c4.8-3.6,11.7-3.7,18.9-6.9,1.5-.6,3.8-1.7,3.8-1.7l-.2,39.4,30.6.2v12.7c-.2,8.9-9.7,15.7-17.9,15.6h-12.9c0,0-.3,37.7-.3,37.7,0,7,4.3,11.2,11.3,11.3,8.6,0,12.6-.7,16.4-2.1h.9s0,7.9,0,7.9c0,8.7-8.1,22.8-26.9,22.7-17.9-.1-37-8.8-36.8-37.5l.5-77c0-9.5,5.6-17.1,12.7-22.3"/>
      <path id="Fill-9" class="st0" d="M337.3,199.9c-.9,0-1.7-.2-2.4-.6-.7-.4-1.2-1-1.5-1.7-.3-.8-.3-1.6-.1-2.6l2.5-12.8h3.4l-2.6,12.7c-.1.7,0,1.2.2,1.6.2.4.7.6,1.4.6s.6,0,1-.1c.3,0,.6-.2.9-.4l.6,2.5c-.5.3-1.1.5-1.7.7-.6.1-1.2.2-1.8.2h0ZM332.3,188.1l.5-2.7h9.6l-.5,2.7h-9.6Z"/>
      <path id="Fill-11" class="st0" d="M353.7,199.7l.6-3.3.9-3.8.5-3.9.7-3.4h3.4l-2.9,14.4h-3.2ZM350.2,197c1,0,1.8-.2,2.5-.7.7-.5,1.3-1.1,1.8-1.9.4-.8.6-1.7.6-2.8s-.3-2-1-2.6c-.7-.6-1.6-1-2.8-1s-1.8.2-2.5.7c-.8.5-1.3,1.1-1.8,1.9-.4.8-.6,1.7-.6,2.8s.3,2,1,2.6c.7.6,1.6,1,2.8,1h0ZM349.3,199.9c-1.2,0-2.2-.3-3.2-.8-1-.5-1.7-1.2-2.3-2.2-.6-.9-.8-2.1-.8-3.4s.2-2.3.6-3.3c.4-1,1-1.9,1.7-2.7.7-.8,1.6-1.3,2.6-1.8,1-.4,2-.6,3.2-.6s2.3.2,3.1.7c.9.4,1.5,1.1,2,2,.5.9.7,1.9.6,3.2,0,1.8-.4,3.3-1,4.7-.6,1.3-1.5,2.4-2.6,3.1-1.1.7-2.4,1.1-4,1.1h0Z"/>
      <path id="Fill-13" class="st0" d="M381.9,185.1c1.3,0,2.3.3,3.1.8.8.5,1.4,1.3,1.8,2.2.3,1,.4,2.2.1,3.6l-1.6,8h-3.4l1.6-7.9c.3-1.2.2-2.1-.3-2.7-.4-.7-1.2-1-2.4-1s-2.1.3-2.9,1c-.8.7-1.3,1.7-1.6,3.1l-1.5,7.5h-3.4l1.6-7.9c.3-1.2.2-2.1-.3-2.7-.4-.7-1.2-1-2.3-1s-2.1.3-2.9,1c-.7.7-1.3,1.7-1.6,3.1l-1.5,7.5h-3.4l2.9-14.4h3.2l-.8,4-.5-1.2c.7-1,1.5-1.8,2.5-2.3,1-.5,2.1-.7,3.3-.7s1.8.2,2.5.5c.7.3,1.3.8,1.7,1.5.4.6.7,1.4.8,2.3l-1.6-.4c.8-1.3,1.7-2.3,2.9-2.9,1.1-.7,2.5-1,3.9-1"/>
      <path id="Fill-15" class="st0" d="M402.4,199.9c-.9,0-1.7-.2-2.4-.6-.7-.4-1.2-1-1.5-1.7-.3-.8-.3-1.6-.1-2.6l2.5-12.8h3.4l-2.6,12.7c-.1.7,0,1.2.2,1.6.2.4.7.6,1.4.6s.6,0,1-.1c.3,0,.6-.2.9-.4l.6,2.5c-.5.3-1.1.5-1.7.7-.6.1-1.2.2-1.8.2h0ZM397.5,188.1l.5-2.7h9.6l-.5,2.7h-9.6Z"/>
      <path id="Fill-17" class="st0" d="M418.8,199.7l.6-3.3.9-3.8.5-3.9.7-3.4h3.4l-2.9,14.4h-3.2ZM415.3,197c.9,0,1.8-.2,2.5-.7.7-.5,1.3-1.1,1.8-1.9.4-.8.6-1.7.6-2.8s-.3-2-1-2.6c-.7-.6-1.6-1-2.8-1s-1.8.2-2.5.7c-.8.5-1.3,1.1-1.8,1.9-.4.8-.6,1.7-.6,2.8s.3,2,1,2.6c.7.6,1.6,1,2.8,1h0ZM414.4,199.9c-1.2,0-2.2-.3-3.2-.8-1-.5-1.7-1.2-2.3-2.2-.6-.9-.8-2.1-.8-3.4s.2-2.3.6-3.3c.4-1,1-1.9,1.7-2.7.7-.8,1.6-1.3,2.6-1.8,1-.4,2-.6,3.2-.6s2.3.2,3.1.7c.9.4,1.5,1.1,2,2,.5.9.7,1.9.6,3.2,0,1.8-.4,3.3-1,4.7-.6,1.3-1.5,2.4-2.6,3.1-1.1.7-2.4,1.1-4,1.1h0Z"/>
      <path id="Fill-19" class="st0" d="M437.3,199.7l.7-3.3.9-3.8.5-3.9,1.8-9h3.3l-4,20h-3.2ZM433.8,197c1,0,1.8-.2,2.5-.7.7-.5,1.3-1.1,1.7-1.9.4-.8.6-1.7.6-2.8s-.3-2-1-2.6c-.7-.6-1.6-1-2.8-1s-1.8.2-2.5.7c-.8.5-1.3,1.1-1.8,1.9-.4.8-.6,1.7-.6,2.8s.3,2,1,2.6,1.6,1,2.8,1h0ZM432.9,199.9c-1.2,0-2.3-.3-3.2-.8-1-.5-1.7-1.2-2.3-2.2-.6-.9-.8-2.1-.8-3.4s.2-2.3.6-3.3c.4-1,1-1.9,1.7-2.7.7-.8,1.6-1.3,2.6-1.8,1-.4,2-.6,3.2-.6s2.2.2,3.1.6c.9.4,1.5,1.1,2,1.9.5.8.7,1.8.7,3s-.2,2.6-.5,3.7c-.3,1.1-.8,2.1-1.5,2.9s-1.4,1.4-2.4,1.9c-.9.4-2,.7-3.1.7h0Z"/>
      <polygon id="Fill-21" class="st0" points="444.9 199.7 447.8 185.3 451.1 185.3 448.3 199.7 444.9 199.7"/>
      <path id="Fill-23" class="st0" d="M463.4,185.1c1.2,0,2.3.3,3.1.8.9.5,1.5,1.3,1.8,2.2.4,1,.4,2.2,0,3.6l-1.6,8h-3.4l1.6-7.9c.2-1.2.1-2.1-.3-2.7-.4-.7-1.3-1-2.4-1s-2.3.3-3.1,1c-.8.7-1.4,1.7-1.7,3.1l-1.5,7.5h-3.4l2.9-14.4h3.2l-.8,4.1-.5-1.3c.7-1,1.5-1.8,2.5-2.3,1-.5,2.2-.7,3.4-.7"/>
      <path id="Fill-25" class="st0" d="M482,199.7l.7-3.3.9-3.8.5-3.9,1.8-9h3.3l-4,20h-3.2ZM478.5,197c1,0,1.8-.2,2.5-.7.7-.5,1.3-1.1,1.7-1.9.4-.8.6-1.7.6-2.8s-.3-2-1-2.6c-.7-.6-1.6-1-2.8-1s-1.8.2-2.5.7c-.8.5-1.3,1.1-1.8,1.9-.4.8-.6,1.7-.6,2.8s.3,2,1,2.6,1.6,1,2.8,1h0ZM477.6,199.9c-1.2,0-2.3-.3-3.2-.8-1-.5-1.7-1.2-2.3-2.2-.6-.9-.8-2.1-.8-3.4s.2-2.3.6-3.3c.4-1,1-1.9,1.7-2.7.7-.8,1.6-1.3,2.6-1.8,1-.4,2-.6,3.2-.6s2.2.2,3.1.6c.9.4,1.5,1.1,2,1.9.5.8.7,1.8.7,3s-.2,2.6-.5,3.7c-.3,1.1-.8,2.1-1.5,2.9s-1.4,1.4-2.4,1.9c-.9.4-2,.7-3.1.7h0Z"/>
      <path id="Fill-27" class="st0" d="M500.5,199.7l.6-3.3.9-3.8.5-3.9.7-3.4h3.4l-2.9,14.4h-3.2ZM497,197c1,0,1.8-.2,2.5-.7.7-.5,1.3-1.1,1.8-1.9.4-.8.6-1.7.6-2.8s-.3-2-1-2.6c-.7-.6-1.6-1-2.8-1s-1.8.2-2.5.7c-.8.5-1.3,1.1-1.8,1.9-.4.8-.6,1.7-.6,2.8s.3,2,1,2.6c.7.6,1.6,1,2.8,1h0ZM496.1,199.9c-1.2,0-2.2-.3-3.2-.8-1-.5-1.7-1.2-2.3-2.2-.6-.9-.8-2.1-.8-3.4s.2-2.3.6-3.3c.4-1,1-1.9,1.7-2.7.7-.8,1.6-1.3,2.6-1.8,1-.4,2-.6,3.2-.6s2.3.2,3.1.7c.9.4,1.5,1.1,2,2,.5.9.7,1.9.6,3.2,0,1.8-.4,3.3-1,4.7-.6,1.3-1.5,2.4-2.6,3.1-1.1.7-2.4,1.1-4,1.1h0Z"/>
    </g>
  </g>
</svg>