<?xml version="1.0" encoding="UTF-8"?>
<svg id="Layer_1" xmlns="http://www.w3.org/2000/svg" version="1.1" viewBox="0 0 838.5 224">
  <!-- Generator: Adobe Illustrator 29.3.0, SVG Export Plug-In . SVG Version: 2.1.0 Build 146)  -->
  <path d="M773.6,119.1l13.1-34.4,13.1,34.4h-26.2ZM800.4,65.1h-27.3l-38.1,93.3h23.6l8.7-22.8h38.9l8.7,22.8h23.6l-38.1-93.3h0ZM608,142.2c-15.4,0-27.8-13.9-27.8-31s12.5-31,27.8-31,27.8,13.9,27.8,31-12.5,31-27.8,31M608,61.9c-27.2,0-49.3,22.1-49.3,49.3s22.1,49.3,49.3,49.3,49.3-22.1,49.3-49.3-22.1-49.3-49.3-49.3M413.5,142.2c-15.4,0-27.8-13.9-27.8-31s12.5-31,27.8-31,27.8,13.9,27.8,31-12.5,31-27.8,31M413.5,61.9c-27.2,0-49.3,22.1-49.3,49.3s22.1,49.3,49.3,49.3,49.3-22.1,49.3-49.3-22.1-49.3-49.3-49.3M535.3,65.1l-24.2,37.8-24.2-37.8h-23.6l37.4,58.5v34.8h20.8v-34.8l37.4-58.5h-23.6ZM740,65.1h-79.8v17.9h29.6v75.4h20.8v-75.4h29.4v-17.9ZM280,83h29.6v75.4h20.8v-75.4h29.4v-17.9h-79.8s0,17.9,0,17.9Z"/>
  <path d="M149.4,63.2c-10.4-3.3-23.3-5.3-37.3-5.3s-27,2-37.4,5.3c-27.7,8.9-46.7,27.3-46.7,48.7s37.6,54.3,84,54.3,84-24.3,84-54.3-19-39.8-46.6-48.7M112,142.8c-6.9,0-12.6-13.6-12.9-30.7,4.2.4,8.5.6,12.9.6s8.7-.2,12.9-.6c-.3,17.1-6,30.7-12.9,30.7M100,98.7c1.9-12,6.6-20.5,12-20.5s10.1,8.5,12,20.5c-3.8.3-7.9.5-12,.5s-8.2-.2-12-.5M131.4,97.8c-2.8-18.8-10.4-32.3-19.4-32.3s-16.6,13.5-19.4,32.3c-17.1-2.7-29-8.7-29-15.8s21.7-17.2,48.4-17.2,48.4,7.7,48.4,17.2-11.9,13.1-29,15.8M40.3,109.8c0-9.2,3.5-17.8,9.7-25.2,0,.5-.1,1-.1,1.6,0,11.6,17.4,21.4,41.6,25,0,.9,0,1.8,0,2.6,0,21.5,6,39.7,14.2,46-36.7-2.2-65.4-23.8-65.4-50M118.3,159.8c8.2-6.3,14.2-24.5,14.2-46s0-1.8,0-2.6c24.2-3.6,41.6-13.4,41.6-25s0-1-.1-1.6c6.2,7.4,9.7,16,9.7,25.2,0,26.2-28.8,47.8-65.4,50"/>
</svg>