<?xml version="1.0" encoding="UTF-8"?>
<svg id="Brand_Manual" data-name="Brand Manual" xmlns="http://www.w3.org/2000/svg" viewBox="0 0 320.34 190.78">
  <defs>
    <style>
      .cls-1 {
        fill: #00a6fb;
      }

      .cls-2 {
        isolation: isolate;
      }

      .cls-2, .cls-3 {
        fill: #caf0f8;
      }
    </style>
  </defs>
  <g>
    <path class="cls-2" d="M62.63,88.47c3.49-1.83,7.35-4.14,11.36-7.05,5.7-4.14,10.22-8.41,13.71-12.19,4.04-3.86,8.24-8.2,12.44-13.08,2.37-2.75,4.58-5.47,6.62-8.12,5.67,7.64,11,13.56,15.1,17.77,8.04,8.26,15.93,16.24,28.32,22.6,6.6,3.39,12.48,5.3,16.58,6.41-11.23-6.23-19.24-12.72-24.45-17.45-5.95-5.42-10.4-10.62-19.05-20.8-6.85-8.06-12.28-14.89-15.96-19.63-5.9,8.13-12.57,16.68-20.1,25.44-8.37,9.75-16.66,18.42-24.57,26.1Z"/>
    <path class="cls-3" d="M88.44,81.94c4.32-2.72,10.66-7.03,17.65-13.12,5.14-4.47,22.57-19.74,37.67-45.07h0c7.64,1.06,8.58,1.19,8.58,1.19,13.65,15.79,17.41,20.27,17.41,20.27,4.71,5.61,7.04,8.43,7.4,8.88,3.32,4.05,3.58,4.49,5.47,6.38,7.63,7.6,15.28,12.28,20.51,15.02-18.4-23.05-36.8-46.1-55.2-69.15-2.74,3.7-6.73,9.06-11.57,15.5-11.14,14.81-18.53,24.64-27.9,36.25-4.82,5.97-11.59,14.18-20.03,23.85Z"/>
    <path class="cls-3" d="M143.76,23.76c.71,6.48,2.6,16.45,8.12,27.35,5.46,10.78,12,17.6,14.42,20,1.54,1.53,11.3,11.04,24.74,16.31,32.6,12.79,67.25-7.01,66.88-8.43-.27-1.05-26.42,12.43-55.74,2.99-15.81-5.09-26.16-14.79-30.59-19.47-13.85-14.61-17.93-30.77-19.25-37.56"/>
    <path class="cls-3" d="M212.83,65.87l-25.04-28.94-8.25,9.08,3.83,5.39c1.47-1.41,2.95-2.81,4.42-4.22,2.97,3.31,6.93,7.16,12.03,10.92,4.71,3.47,9.21,5.97,13.01,7.77Z"/>
  </g>
  <g>
    <g>
      <polygon class="cls-3" points="316.88 132.18 301.74 150.85 297.85 146.1 309.53 132.18 316.88 132.18"/>
      <polygon class="cls-3" points="280.69 132.18 316.88 178.4 308.96 178.4 273.35 132.18 280.69 132.18"/>
      <polygon class="cls-3" points="291.86 163.68 280.2 178.4 272.06 178.4 288.35 159.24 291.86 163.68"/>
    </g>
    <g>
      <rect class="cls-2" x="108.99" y="132.2" width="38.72" height="5.6"/>
      <rect class="cls-3" x="124.94" y="143.19" width="6.01" height="35.23"/>
    </g>
    <g>
      <polygon class="cls-3" points="100.3 131.76 66.13 131.76 66.13 178.78 100.3 178.78 100.3 172.56 73.58 172.56 73.58 137.36 100.3 137.36 100.3 131.76"/>
      <rect class="cls-3" x="79.38" y="152.06" width="20.91" height="5.18"/>
    </g>
    <polygon class="cls-3" points="54.14 132.24 54.14 178.46 47.7 178.46 47.7 144.26 31.96 165.38 28.03 165.38 12.5 143.23 12.5 178.46 5.46 178.46 5.46 132.24 11.05 132.24 29.8 157.72 48.53 132.24 54.14 132.24"/>
    <g>
      <path class="cls-1" d="M179.21,130.83c7.39,0,13.54,2.34,18.46,7.02,4.91,4.68,7.37,10.54,7.37,17.6s-2.48,12.89-7.44,17.51-11.22,6.93-18.76,6.93-13.21-2.31-18.01-6.93-7.2-10.41-7.2-17.37,2.42-13.05,7.25-17.73c4.83-4.68,10.95-7.02,18.34-7.02ZM179.48,137.33c-5.47,0-9.97,1.71-13.49,5.13-3.52,3.42-5.28,7.79-5.28,13.11s1.77,9.45,5.3,12.87c3.53,3.42,7.96,5.14,13.27,5.14s9.79-1.75,13.36-5.24c3.57-3.49,5.35-7.84,5.35-13.04s-1.78-9.33-5.35-12.79c-3.57-3.46-7.95-5.19-13.15-5.19Z"/>
      <path class="cls-1" d="M238.17,130.61c7.39,0,13.54,2.34,18.46,7.02,4.91,4.68,7.37,10.54,7.37,17.6s-2.48,12.89-7.44,17.51c-4.96,4.62-11.22,6.93-18.76,6.93s-13.21-2.31-18.01-6.93c-4.8-4.62-7.2-10.41-7.2-17.37s2.42-13.05,7.25-17.73c4.83-4.68,10.95-7.02,18.34-7.02ZM238.44,137.12c-5.47,0-9.97,1.71-13.49,5.13-3.52,3.42-5.28,7.79-5.28,13.11s1.77,9.45,5.3,12.87c3.53,3.42,7.96,5.14,13.27,5.14s9.79-1.75,13.36-5.24c3.57-3.49,5.35-7.84,5.35-13.04s-1.78-9.33-5.35-12.79c-3.57-3.46-7.95-5.19-13.15-5.19Z"/>
    </g>
  </g>
</svg>