<svg xmlns="http://www.w3.org/2000/svg" width="99" height="99" fill="none" viewBox="0 0 99 99">
  <path stroke="#003295" stroke-miterlimit="10" stroke-width=".25" d="M84.87 12.43v8.32H68.48V1H54.17v33.45h-8.73V8.69H31.23v19.8H15.12V12.43H3.69C2.2 12.43 1 13.64 1 15.14v48.57c0 1.82.91 3.51 2.41 4.51l13.34 8.89V50.39c0-3.52 2.69-6.58 6.19-6.69 3.5-.11 6.58 2.81 6.58 6.42v34.04c0 .91.45 1.75 1.21 2.26l17.41 11.6c.9.6 2.06.6 2.96 0l17.95-11.85c.76-.5 1.21-1.35 1.21-2.26V42.35c0-3.52 2.69-6.58 6.19-6.69 3.5-.11 6.58 2.81 6.58 6.42v34.86l13.2-8.71c1.52-1 2.43-2.7 2.43-4.52V15.14c0-1.49-1.2-2.71-2.69-2.71h-11.1ZM45.43 78.38V49.37h8.73v28.91c0 3.62-1.63 7.04-4.43 9.3-2.72-2.27-4.3-5.64-4.3-9.2Z"/>
</svg>
