<svg xmlns="http://www.w3.org/2000/svg" width="98" height="98" fill="none" viewBox="0 0 98 98">
  <g clip-path="url(#a)">
    <path stroke="#fff" stroke-miterlimit="10" stroke-width=".25" d="M84 11.55v8.32H67.61V.12H53.3v33.45h-8.73V7.81H30.36v19.8H14.25V11.55H2.82c-1.49 0-2.69 1.21-2.69 2.71v48.57c0 1.82.91 3.51 2.41 4.51l13.34 8.89V49.51c0-3.52 2.69-6.58 6.19-6.69 3.5-.11 6.58 2.81 6.58 6.42v34.04c0 .91.45 1.75 1.21 2.26l17.41 11.6c.9.6 2.06.6 2.96 0l17.95-11.85c.76-.5 1.21-1.35 1.21-2.26V41.47c0-3.52 2.69-6.58 6.19-6.69 3.5-.11 6.58 2.81 6.58 6.42v34.86l13.2-8.71c1.52-1 2.43-2.7 2.43-4.52V14.26c0-1.49-1.2-2.71-2.69-2.71H84ZM44.56 77.5V48.49h8.73V77.4c0 3.62-1.63 7.04-4.43 9.3-2.72-2.27-4.3-5.64-4.3-9.2Z"/>
  </g>
  <defs>
    <clipPath id="a">
      <path fill="#fff" d="M0 0h97.91v97.71H0z"/>
    </clipPath>
  </defs>
</svg>
