<svg xmlns="http://www.w3.org/2000/svg" width="106" height="61" fill="none" viewBox="0 0 106 61">
  <path fill="#003295" d="M.04.71h6.94v14.27h16.98V.71h6.94v35.48h-6.94V21.38H6.98v14.81H.04V.71Zm37.78 14.7C37.82 5.92 43.24 0 53.28 0c10.04 0 15.57 5.91 15.57 15.41v20.78h-6.94V25.56h-17.3v10.63h-6.78V15.41h-.01Zm24.08 3.85v-3.85c0-5.7-2.82-8.95-8.68-8.95-5.86 0-8.63 3.25-8.63 8.95v3.85H61.9Zm13.69-4.45C75.59 5.7 80.96 0 90.67 0s15.08 5.7 15.08 14.81v21.37h-6.94V14.81c0-5.26-2.71-8.35-8.14-8.35-5.43 0-8.14 3.09-8.14 8.35v21.37h-6.94V14.81ZM0 43.94h3.19v6.58h7.8v-6.58h3.19v16.37h-3.19v-6.83h-7.8v6.83H0V43.94Zm16.49 8.19c0-4.9 3.59-8.51 8.67-8.51s8.67 3.6 8.67 8.51-3.59 8.51-8.67 8.51-8.67-3.6-8.67-8.51Zm14.1 0c0-3.2-2.19-5.53-5.43-5.53-3.24 0-5.43 2.33-5.43 5.53s2.19 5.56 5.43 5.56c3.24 0 5.43-2.35 5.43-5.56Zm5.56-8.19h3.19v13.41h8.52v2.95H36.15V43.93v.01Zm13.83 0h5.78c5.71 0 8.7 3.28 8.7 8.18s-2.99 8.18-8.7 8.18h-5.78V43.93v.01Zm5.78 13.42c3.76 0 5.46-2.05 5.46-5.23 0-3.18-1.69-5.21-5.46-5.21h-2.59v10.44h2.59Zm10.91-15.85c0-.98.75-1.73 1.72-1.73s1.72.75 1.72 1.73-.75 1.73-1.72 1.73-1.72-.75-1.72-1.73Zm.12 2.73h3.19v16.07h-3.19V44.24Zm5.98 6.21c0-4.2 2.47-6.83 6.93-6.83 4.46 0 6.93 2.63 6.93 6.83v9.86h-3.19v-9.86c0-2.43-1.25-3.85-3.74-3.85s-3.74 1.43-3.74 3.85v9.86h-3.19v-9.86Zm15.8 1.68c0-4.9 3.59-8.51 8.67-8.51 3.99 0 7.05 2.2 8.2 5.53h-3.54c-.87-1.58-2.57-2.55-4.66-2.55-3.24 0-5.43 2.33-5.43 5.53s2.19 5.56 5.43 5.56c2.54 0 4.41-1.18 5.21-3.4h-6.2v-2.85h9.64v1.53c-.37 4.48-3.86 7.68-8.65 7.68-5.08 0-8.67-3.6-8.67-8.51v-.01Z"/>
</svg>
